<svg xmlns="http://www.w3.org/2000/svg" width="768" height="768" viewBox="0 0 768 768"><defs><linearGradient id="g"><stop stop-color="#fff4ad"/><stop offset=".5" stop-color="#d99b1d"/><stop offset="1" stop-color="#7a4b08"/></linearGradient><linearGradient id="b"><stop stop-color="#d9f7ff"/><stop offset=".5" stop-color="#269bd2"/><stop offset="1" stop-color="#073b86"/></linearGradient><linearGradient id="p"><stop stop-color="#f4b6ff"/><stop offset=".5" stop-color="#7a20d0"/><stop offset="1" stop-color="#351078"/></linearGradient><linearGradient id="s"><stop stop-color="#fff"/><stop offset=".5" stop-color="#91a5bd"/><stop offset="1" stop-color="#52667d"/></linearGradient><linearGradient id="k"><stop stop-color="#fff"/><stop offset=".5" stop-color="#ff8fbd"/><stop offset="1" stop-color="#a61c5c"/></linearGradient></defs><circle cx="64" cy="64" r="49" fill="none" stroke="url(#g)" stroke-width="11"/><circle cx="64" cy="102" r="15" fill="#ffd34f"/><path d="M26 102h-18M102 102h18" stroke="#ffd34f" stroke-width="6"/><circle cx="192" cy="64" r="49" fill="none" stroke="url(#g)" stroke-width="11"/><path d="M154 64Q192 26 230 64" fill="none" stroke="#fff1a5" stroke-width="7"/><circle cx="320" cy="64" r="49" fill="none" stroke="url(#g)" stroke-width="11"/><path d="M282 102Q320 26 358 102" fill="none" stroke="#67dfff" stroke-width="10"/><circle cx="448" cy="64" r="49" fill="none" stroke="url(#g)" stroke-width="11"/><path d="M410 26Q448 102 486 26" fill="none" stroke="#f5d48a" stroke-width="8"/><circle cx="576" cy="64" r="49" fill="none" stroke="url(#g)" stroke-width="13"/><path d="M538 102Q576 26 614 102" fill="none" stroke="#5fae67" stroke-width="9"/><circle cx="704" cy="64" r="49" fill="none" stroke="url(#g)" stroke-width="13"/><circle cx="666" cy="26" r="9" fill="#54d7ff"/><circle cx="742" cy="26" r="9" fill="#ff69d4"/><circle cx="704" cy="26" r="9" fill="#a56cff"/><circle cx="64" cy="192" r="49" fill="none" stroke="url(#g)" stroke-width="13"/><path d="M64 154v40M26 192h40" stroke="#cdefff" stroke-width="4"/><circle cx="64" cy="192" r="7" fill="#fff"/><circle cx="192" cy="192" r="49" fill="none" stroke="url(#g)" stroke-width="13"/><circle cx="192" cy="192" r="28" fill="none" stroke="#c8d8ff" stroke-width="8"/><circle cx="320" cy="192" r="49" fill="none" stroke="url(#k)" stroke-width="13"/><path d="M282 154Q320 230 358 154" fill="none" stroke="#ff9fbd" stroke-width="9"/><circle cx="448" cy="192" r="49" fill="none" stroke="url(#k)" stroke-width="13"/><path d="M410 230L448 154L486 230" fill="none" stroke="#d7a7ff" stroke-width="10"/><circle cx="576" cy="192" r="49" fill="none" stroke="url(#s)" stroke-width="13"/><path d="M538 230L576 154L614 230" fill="none" stroke="#b7d7ff" stroke-width="10"/><path d="M538 154L614 230" stroke="#8bb6e8" stroke-width="5"/><circle cx="704" cy="192" r="49" fill="none" stroke="url(#s)" stroke-width="13"/><path d="M666 230Q704 154 742 230" fill="none" stroke="#ff9fba" stroke-width="10"/><circle cx="704" cy="154" r="8" fill="#ff54a2"/><circle cx="64" cy="320" r="49" fill="none" stroke="url(#s)" stroke-width="13"/><path d="M26 358Q64 282 102 358" fill="none" stroke="#ffcf5a" stroke-width="11"/><circle cx="192" cy="320" r="49" fill="none" stroke="url(#s)" stroke-width="13"/><path d="M154 282Q192 358 230 282" fill="none" stroke="#7bd0ff" stroke-width="11"/><circle cx="320" cy="320" r="49" fill="none" stroke="url(#g)" stroke-width="15"/><path d="M282 282Q320 358 358 282" fill="none" stroke="#ffd95d" stroke-width="11"/><circle cx="448" cy="320" r="49" fill="none" stroke="url(#g)" stroke-width="15"/><circle cx="448" cy="320" r="33" fill="none" stroke="#68b35b" stroke-width="9"/><circle cx="576" cy="320" r="49" fill="none" stroke="url(#g)" stroke-width="15"/><path d="M538 358Q576 282 614 358" fill="none" stroke="#7cff8a" stroke-width="10"/><circle cx="704" cy="320" r="49" fill="none" stroke="url(#g)" stroke-width="15"/><path d="M666 282Q704 358 742 282" fill="none" stroke="#ff6b93" stroke-width="10"/><circle cx="64" cy="448" r="49" fill="none" stroke="url(#g)" stroke-width="15"/><path d="M26 486L64 410L102 486" fill="none" stroke="#fff0c0" stroke-width="10"/><circle cx="192" cy="448" r="49" fill="none" stroke="url(#g)" stroke-width="15"/><circle cx="192" cy="448" r="37" fill="none" stroke="#7ae2d5" stroke-width="9"/><circle cx="320" cy="448" r="49" fill="none" stroke="url(#g)" stroke-width="17"/><path d="M320 410v45M282 448h50" stroke="#79b8ff" stroke-width="7"/><circle cx="448" cy="448" r="49" fill="none" stroke="url(#g)" stroke-width="17"/><path d="M410 410Q448 486 486 410" fill="none" stroke="#d5a0ff" stroke-width="11"/><circle cx="576" cy="448" r="49" fill="none" stroke="url(#g)" stroke-width="17"/><circle cx="576" cy="448" r="30" fill="none" stroke="#d8b24c" stroke-width="10"/><path d="M576 410v45" stroke="#fff0ad" stroke-width="7"/><circle cx="704" cy="448" r="49" fill="none" stroke="url(#g)" stroke-width="17"/><path d="M666 486L704 410L742 486" fill="none" stroke="#dcecff" stroke-width="11"/><circle cx="64" cy="576" r="49" fill="none" stroke="url(#g)" stroke-width="17"/><path d="M26 614Q64 538 102 614" fill="none" stroke="#4dd8c7" stroke-width="11"/><circle cx="192" cy="576" r="49" fill="none" stroke="url(#p)" stroke-width="17"/><path d="M192 538v45M154 576h50" stroke="#7dbbff" stroke-width="7"/><circle cx="192" cy="576" r="10" fill="#f0c04a"/><circle cx="320" cy="576" r="49" fill="none" stroke="url(#p)" stroke-width="17"/><path d="M282 538Q320 614 358 538" fill="none" stroke="#d4a1ff" stroke-width="12"/><circle cx="448" cy="576" r="49" fill="none" stroke="url(#p)" stroke-width="17"/><circle cx="448" cy="576" r="35" fill="none" stroke="#f4c44f" stroke-width="8"/><circle cx="576" cy="576" r="49" fill="none" stroke="url(#p)" stroke-width="17"/><circle cx="576" cy="576" r="37" fill="none" stroke="#72e8ff" stroke-width="12"/><circle cx="576" cy="576" r="27" fill="none" stroke="#d69bff" stroke-width="7"/><circle cx="704" cy="576" r="49" fill="none" stroke="url(#p)" stroke-width="17"/><circle cx="704" cy="576" r="37" fill="none" stroke="#ffcf54" stroke-width="8"/><path d="M704 538v35l20 12" stroke="#fff" stroke-width="5"/></svg>